<svg xmlns="http://www.w3.org/2000/svg" width="22.812" height="22.812" viewBox="0 0 22.812 22.812">
  <g id="グループ_32" data-name="グループ 32" transform="translate(-782 -62)">
    <g id="グループ_30" data-name="グループ 30" transform="translate(-12 -343)">
      <g id="グループ_17" data-name="グループ 17">
        <g id="グループ_16" data-name="グループ 16">
          <path id="パス_11" data-name="パス 11" d="M0,0H7.812V7.812" transform="translate(795 413.812) rotate(-90)" fill="none" stroke="#444" stroke-width="2"/>
        </g>
        <path id="パス_12" data-name="パス 12" d="M.225,0V8.773" transform="translate(794.841 406.159) rotate(-45)" fill="none" stroke="#444" stroke-width="2"/>
      </g>
    </g>
    <g id="グループ_28" data-name="グループ 28" transform="translate(783 76)">
      <g id="グループ_17-2" data-name="グループ 17">
        <g id="グループ_16-2" data-name="グループ 16" transform="translate(0)">
          <path id="パス_11-2" data-name="パス 11" d="M0,7.812H7.812V0" transform="translate(7.812) rotate(90)" fill="none" stroke="#444" stroke-width="2"/>
        </g>
        <path id="パス_12-2" data-name="パス 12" d="M0,8.773V0" transform="translate(6.204 1.609) rotate(45)" fill="none" stroke="#444" stroke-width="2"/>
      </g>
    </g>
    <g id="グループ_31" data-name="グループ 31" transform="translate(796 63)">
      <g id="グループ_17-3" data-name="グループ 17">
        <g id="グループ_16-3" data-name="グループ 16">
          <path id="パス_11-3" data-name="パス 11" d="M0,7.812H7.812V0" transform="translate(0 7.812) rotate(-90)" fill="none" stroke="#444" stroke-width="2"/>
        </g>
        <path id="パス_12-3" data-name="パス 12" d="M0,8.773V0" transform="translate(1.609 6.204) rotate(-135)" fill="none" stroke="#444" stroke-width="2"/>
      </g>
    </g>
    <g id="グループ_29" data-name="グループ 29" transform="translate(796 76)">
      <g id="グループ_17-4" data-name="グループ 17" transform="translate(0)">
        <g id="グループ_16-4" data-name="グループ 16">
          <path id="パス_11-4" data-name="パス 11" d="M0,0H7.812V7.812" transform="translate(7.812) rotate(90)" fill="none" stroke="#444" stroke-width="2"/>
        </g>
        <path id="パス_12-4" data-name="パス 12" d="M0,0V8.773" transform="translate(7.812 7.812) rotate(135)" fill="none" stroke="#444" stroke-width="2"/>
      </g>
    </g>
  </g>
</svg>
